<svg width="41" height="47" viewBox="0 0 41 47" fill="none" xmlns="http://www.w3.org/2000/svg">
<path d="M7.79199 46.375C6.39408 46.375 5.19737 45.8773 4.20189 44.8818C3.2064 43.8863 2.70866 42.6896 2.70866 41.2917V8.25C1.98852 8.25 1.38487 8.00642 0.897721 7.51927C0.410569 7.03212 0.166992 6.42847 0.166992 5.70833C0.166992 4.98819 0.410569 4.38455 0.897721 3.8974C1.38487 3.41024 1.98852 3.16667 2.70866 3.16667H12.8753C12.8753 2.44653 13.1189 1.84288 13.6061 1.35573C14.0932 0.868576 14.6969 0.625 15.417 0.625H25.5837C26.3038 0.625 26.9074 0.868576 27.3946 1.35573C27.8817 1.84288 28.1253 2.44653 28.1253 3.16667H38.292C39.0121 3.16667 39.6158 3.41024 40.1029 3.8974C40.5901 4.38455 40.8337 4.98819 40.8337 5.70833C40.8337 6.42847 40.5901 7.03212 40.1029 7.51927C39.6158 8.00642 39.0121 8.25 38.292 8.25V41.2917C38.292 42.6896 37.7942 43.8863 36.7988 44.8818C35.8033 45.8773 34.6066 46.375 33.2087 46.375H7.79199ZM33.2087 8.25H7.79199V41.2917H33.2087V8.25ZM15.417 36.2083C16.1371 36.2083 16.7408 35.9648 17.2279 35.4776C17.7151 34.9905 17.9587 34.3868 17.9587 33.6667V15.875C17.9587 15.1549 17.7151 14.5512 17.2279 14.0641C16.7408 13.5769 16.1371 13.3333 15.417 13.3333C14.6969 13.3333 14.0932 13.5769 13.6061 14.0641C13.1189 14.5512 12.8753 15.1549 12.8753 15.875V33.6667C12.8753 34.3868 13.1189 34.9905 13.6061 35.4776C14.0932 35.9648 14.6969 36.2083 15.417 36.2083ZM25.5837 36.2083C26.3038 36.2083 26.9074 35.9648 27.3946 35.4776C27.8817 34.9905 28.1253 34.3868 28.1253 33.6667V15.875C28.1253 15.1549 27.8817 14.5512 27.3946 14.0641C26.9074 13.5769 26.3038 13.3333 25.5837 13.3333C24.8635 13.3333 24.2599 13.5769 23.7727 14.0641C23.2856 14.5512 23.042 15.1549 23.042 15.875V33.6667C23.042 34.3868 23.2856 34.9905 23.7727 35.4776C24.2599 35.9648 24.8635 36.2083 25.5837 36.2083Z" fill="#931412"/>
</svg>
